<svg width="11" height="10" viewBox="0 0 11 10" fill="none" xmlns="http://www.w3.org/2000/svg">
<path d="M2.44651 0.87641C2.44651 0.656987 2.53368 0.44655 2.68883 0.291394C2.84399 0.136238 3.05443 0.0490723 3.27385 0.0490723H9.89255C10.112 0.0490723 10.3224 0.136238 10.4776 0.291394C10.6327 0.44655 10.7199 0.656987 10.7199 0.87641V7.49511C10.7199 7.71454 10.6327 7.92497 10.4776 8.08013C10.3224 8.23529 10.112 8.32245 9.89255 8.32245C9.67313 8.32245 9.46269 8.23529 9.30754 8.08013C9.15238 7.92497 9.06522 7.71454 9.06522 7.49511V2.8736L2.2041 9.73472C2.04806 9.88543 1.83908 9.96882 1.62215 9.96693C1.40523 9.96505 1.19772 9.87804 1.04432 9.72464C0.890929 9.57125 0.803918 9.36374 0.802033 9.14681C0.800148 8.92989 0.88354 8.7209 1.03425 8.56486L7.89536 1.70375H3.27385C3.05443 1.70375 2.84399 1.61658 2.68883 1.46143C2.53368 1.30627 2.44651 1.09583 2.44651 0.87641Z" fill="#101010"/>
</svg>
